<?xml version="1.0" encoding="UTF-8" standalone="no"?>
<svg
   xmlns:dc="http://purl.org/dc/elements/1.1/"
   xmlns:cc="http://creativecommons.org/ns#"
   xmlns:rdf="http://www.w3.org/1999/02/22-rdf-syntax-ns#"
   xmlns:svg="http://www.w3.org/2000/svg"
   xmlns="http://www.w3.org/2000/svg"
   viewBox="0 0 446.66666 252"
   height="252"
   width="446.66666"
   xml:space="preserve"
   id="svg2"
   version="1.1"><metadata
     id="metadata8"><rdf:RDF><cc:Work
         rdf:about=""><dc:format>image/svg+xml</dc:format><dc:type
           rdf:resource="http://purl.org/dc/dcmitype/StillImage" /></cc:Work></rdf:RDF></metadata><defs
     id="defs6"><clipPath
       id="clipPath20"
       clipPathUnits="userSpaceOnUse"><path
         style="clip-rule:evenodd"
         id="path18"
         d="M 780.941,732.125 C 844.922,710.18 925.742,705.09 996.809,716.824 1129.23,736.574 1329.51,847.102 1312.25,987.844 974.582,1014.87 873.152,1112.59 834.938,1406.52 182.93,1059.21 628.797,-82.3828 1221.28,15.0273 950.973,55.6133 691.18,341.504 780.941,732.125 Z M 1257.3,919.793 C 1026.39,656.461 618.035,1154.97 607.305,860.004 c -4.461,-122.813 4.258,-205.527 52.843,-314.727 -8.937,75.036 -30.562,189.539 25.915,246.02 56.476,56.476 307.144,-183.957 571.237,128.496 z" /></clipPath><linearGradient
       id="linearGradient26"
       spreadMethod="pad"
       gradientTransform="matrix(10,0,0,10,-4640,-3300)"
       gradientUnits="userSpaceOnUse"
       y2="368.67999"
       x2="567.36798"
       y1="469.431"
       x1="563.17401"><stop
         id="stop22"
         offset="0"
         style="stop-opacity:1;stop-color:#396399" /><stop
         id="stop24"
         offset="1"
         style="stop-opacity:1;stop-color:#192b4b" /></linearGradient><clipPath
       id="clipPath36"
       clipPathUnits="userSpaceOnUse"><path
         style="clip-rule:evenodd"
         id="path34"
         d="m 1087.33,1062.11 c -39.5,147.41 -46.52,253.07 -33.79,356.75 -87.102,-28.38 -140.337,-96.52 -150.966,-176.13 26.344,-86.92 100.586,-149.73 184.756,-180.62 z" /></clipPath><linearGradient
       id="linearGradient42"
       spreadMethod="pad"
       gradientTransform="matrix(10,0,0,10,-4640,-3300)"
       gradientUnits="userSpaceOnUse"
       y2="445.858"
       x2="560.60498"
       y1="471.569"
       x1="561.789"><stop
         id="stop38"
         offset="0"
         style="stop-opacity:1;stop-color:#396399" /><stop
         id="stop40"
         offset="1"
         style="stop-opacity:1;stop-color:#192b4b" /></linearGradient><clipPath
       id="clipPath52"
       clipPathUnits="userSpaceOnUse"><path
         style="clip-rule:evenodd"
         id="path50"
         d="m 603.027,238.242 c 0,0 -223.359,393.512 -124.086,801.198 99.274,407.69 17.082,741.92 -473.90584,844.73 C 37.1758,1797.22 154.742,1590.16 79.5313,1236.57 -12.5586,803.676 383.461,446.137 603.027,238.242 Z M 417.734,1082.52 c 0,0 17.434,147.73 -18.019,234.58 0,0 -1.785,-69.14 -28.367,-120.54 0,0 5.32,171.95 -79.766,269.44 0,0 12.41,-131.19 -40.773,-202.09 l -33.668,156 c 0,0 -55.004,-72.61 -82.594,-206.03 42.582,219.3 35.75,401.64 -26.77,574.59 311.082,-81.67 440.168,-370.97 309.957,-705.95 z" /></clipPath><linearGradient
       id="linearGradient58"
       spreadMethod="pad"
       gradientTransform="matrix(10,0,0,10,-4640,-3300)"
       gradientUnits="userSpaceOnUse"
       y2="398.45901"
       x2="505.72601"
       y1="516.82599"
       x1="497.95901"><stop
         id="stop54"
         offset="0"
         style="stop-opacity:1;stop-color:#396399" /><stop
         id="stop56"
         offset="1"
         style="stop-opacity:1;stop-color:#192b4b" /></linearGradient></defs><g
     transform="matrix(1.3333333,0,0,-1.3333333,0,252)"
     id="g10"><g
       transform="scale(0.1)"
       id="g12"><g
         id="g14"><g
           clip-path="url(#clipPath20)"
           id="g16"><path
             id="path28"
             style="fill:url(#linearGradient26);fill-opacity:1;fill-rule:nonzero;stroke:none"
             d="M 780.941,732.125 C 844.922,710.18 925.742,705.09 996.809,716.824 1129.23,736.574 1329.51,847.102 1312.25,987.844 974.582,1014.87 873.152,1112.59 834.938,1406.52 182.93,1059.21 628.797,-82.3828 1221.28,15.0273 950.973,55.6133 691.18,341.504 780.941,732.125 Z M 1257.3,919.793 C 1026.39,656.461 618.035,1154.97 607.305,860.004 c -4.461,-122.813 4.258,-205.527 52.843,-314.727 -8.937,75.036 -30.562,189.539 25.915,246.02 56.476,56.476 307.144,-183.957 571.237,128.496" /></g></g><g
         id="g30"><g
           clip-path="url(#clipPath36)"
           id="g32"><path
             id="path44"
             style="fill:url(#linearGradient42);fill-opacity:1;fill-rule:nonzero;stroke:none"
             d="m 1087.33,1062.11 c -39.5,147.41 -46.52,253.07 -33.79,356.75 -87.102,-28.38 -140.337,-96.52 -150.966,-176.13 26.344,-86.92 100.586,-149.73 184.756,-180.62" /></g></g><g
         id="g46"><g
           clip-path="url(#clipPath52)"
           id="g48"><path
             id="path60"
             style="fill:url(#linearGradient58);fill-opacity:1;fill-rule:nonzero;stroke:none"
             d="m 603.027,238.242 c 0,0 -223.359,393.512 -124.086,801.198 99.274,407.69 17.082,741.92 -473.90584,844.73 C 37.1758,1797.22 154.742,1590.16 79.5313,1236.57 -12.5586,803.676 383.461,446.137 603.027,238.242 Z M 417.734,1082.52 c 0,0 17.434,147.73 -18.019,234.58 0,0 -1.785,-69.14 -28.367,-120.54 0,0 5.32,171.95 -79.766,269.44 0,0 12.41,-131.19 -40.773,-202.09 l -33.668,156 c 0,0 -55.004,-72.61 -82.594,-206.03 42.582,219.3 35.75,401.64 -26.77,574.59 311.082,-81.67 440.168,-370.97 309.957,-705.95" /></g></g><path
         id="path62"
         style="fill:#323131;fill-opacity:1;fill-rule:nonzero;stroke:none"
         d="m 1160.18,383.785 h 206.84 v 88.184 h -206.84 v 102.152 h 234.12 v 83.758 H 1063.75 V 202.961 h 96.43 v 84.387 z m 727.73,47.582 c 0,130.071 -105.95,234.754 -234.75,234.754 -129.43,0 -234.12,-104.683 -234.12,-234.754 0,-129.433 104.69,-234.117 234.12,-234.117 128.8,0 234.75,104.684 234.75,234.117 z m -234.75,138.949 c 75.5,0 137.04,-63.437 137.04,-138.949 0,-75.5 -61.54,-138.308 -137.04,-138.308 -75.5,0 -138.31,62.808 -138.31,138.308 0,75.512 62.81,138.949 138.31,138.949 z m 244.27,-367.355 h 112.3 l 104.7,155.449 95.16,-155.449 h 118.64 l -157.98,236.66 145.3,216.356 h -109.13 l -91.99,-144.661 -88.84,144.661 H 1910.13 L 2056.05,440.254 1897.43,202.961" /><path
         id="path64"
         style="fill:#386398;fill-opacity:1;fill-rule:nonzero;stroke:none"
         d="M 2521.07,619.492 V 202.961 h -39.09 v 416.531 h -130.47 v 36.035 h 300.66 V 619.492 Z M 2727.39,202.961 V 655.527 H 2946 V 619.492 H 2766.78 V 449.414 h 166.09 V 414.012 H 2766.78 V 238.68 h 189.41 v -35.719 z m 560.77,0 L 3102,416.219 c -4.72,5.25 -7.87,9.351 -9.24,12.289 h -1.26 V 202.961 h -39.39 v 452.566 h 39.39 V 442.586 h 1.26 l 4.62,6.512 4.94,6.203 178.17,200.226 h 50.21 l -197.29,-218.718 209.9,-233.848 h -55.15" /></g></g></svg>